<svg height="512" viewBox="0 0 512 512" width="512" xmlns="http://www.w3.org/2000/svg"><g id="filled_outline" data-name="filled outline"><path d="m328 232 12.285 45.043a155.521 155.521 0 0 1 -1.079 85.6l-.3.989a50.8 50.8 0 0 1 -48.65 36.368h-50.256a16 16 0 0 1 -16-16v-43.16a53.9 53.9 0 0 1 24-44.84h-144a80 80 0 0 0 -80 80v56l288.019.012a50.578 50.578 0 0 0 39.149-18.551l.855-1.044a145.619 145.619 0 0 0 21.177-149.617c-7.485-17.464-13.2-30.8-13.2-30.8z" fill="#fb0200"/><path d="m384 200-48 8h-8v24l2.182 8h5.818l29.539 4.923 18.461 3.077 16-24z" fill="#e50000"/><rect fill="#b3b3b3" height="32" rx="16" width="40" x="376" y="128"/><path d="m384 200h24v48h-24z" fill="#d6d6d6"/><path d="m24 120h128v160h-128z" fill="#5eae35"/><path d="m24 144h128v16h-128z" fill="#008c02"/><path d="m152 72-64-24 64-24z" fill="#5eae35"/><path d="m37.5 240c-4.555 0-9.057-.227-13.5-.656v40.656h128v-100.564a138.348 138.348 0 0 1 -114.5 60.564z" fill="#599b32"/><path d="m96 376a56 56 0 1 0 56 56 56 56 0 0 0 -56-56zm0 80a24 24 0 1 1 24-24 24 24 0 0 1 -24 24z" fill="#808080"/><path d="m72 432a23.949 23.949 0 0 1 1.371-8h-32.793a55.652 55.652 0 0 0 0 16h32.793a23.949 23.949 0 0 1 -1.371-8z" fill="#666"/><path d="m120 432a23.949 23.949 0 0 1 -1.371 8h32.793a55.652 55.652 0 0 0 0-16h-32.793a23.949 23.949 0 0 1 1.371 8z" fill="#666"/><path d="m224 192 24-24 24 24h56a16 16 0 0 1 16 16 16 16 0 0 1 -16 16h-72z" fill="#eabb9b"/><path d="m192 120h32v40h-32z" fill="#eabb9b"/><path d="m432 376a56 56 0 1 0 56 56 56 56 0 0 0 -56-56zm0 80a24 24 0 1 1 24-24 24 24 0 0 1 -24 24z" fill="#808080"/><path d="m432 376a56 56 0 0 0 -55.179 46.488 87.991 87.991 0 0 0 27.47-10.083l15.418-8.81a88 88 0 0 1 43.661-11.595h7.806a55.805 55.805 0 0 0 -39.176-16z" fill="#666"/><path d="m88 312h160v-16a16 16 0 0 0 -16-16h-123.508a16 16 0 0 0 -15.522 12.119z" fill="#875632"/><path d="m40 432a96 96 0 0 1 96-96 64 64 0 0 1 64 64 32 32 0 0 1 -32 32z" fill="#e50000"/><circle cx="88" cy="224" fill="#ffc933" r="32"/><path d="m88 224 21.465-42.931a47.982 47.982 0 0 0 -42.93 0z" fill="#ff8706"/><path d="m184 72v32a24 24 0 0 0 24 24h8a16 16 0 0 0 16-16v-40a24 24 0 0 0 -24-24 24 24 0 0 0 -24 24z" fill="#f9cdaf"/><path d="m248 336h32v48h-32z" fill="#ffc933"/><path d="m248 368v32h40a16 16 0 0 0 16-16 16 16 0 0 0 -16-16h-8a22.627 22.627 0 0 1 -32 0z" fill="#875632"/><path d="m236.686 156.686a16 16 0 0 0 -11.313-4.686h-25.373a16 16 0 0 0 -16 16v72h48v-40l24-24z" fill="#ffc933"/><circle cx="328" cy="224" fill="#4d4d4d" r="16"/><path d="m208 48a24 24 0 0 0 -24 24v8h48v-8a24 24 0 0 0 -24-24z" fill="#5eae35"/><rect fill="#ffb600" height="22.627" rx="4" transform="matrix(.707 -.707 .707 .707 -70.156 214.627)" width="8.001" x="220" y="180.686"/><path d="m184 232v24a24 24 0 0 0 24 24h24a16 16 0 0 1 16 16v48h32v-56a40 40 0 0 0 -40-40h-8v-16z" fill="#5eae35"/><path d="m352 416a72 72 0 0 1 72-72 59.082 59.082 0 0 1 54.856 37.139l1.144 2.861h-16.63a88 88 0 0 0 -43.661 11.6l-15.418 8.81a88 88 0 0 1 -43.661 11.59z" fill="#e50000"/><path d="m486.625 388.485a8 8 0 0 0 .8-7.457l-1.145-2.86a66.76 66.76 0 0 0 -62.28-42.168 79.5 79.5 0 0 0 -32.749 7.039 154.1 154.1 0 0 0 -10.695-83.39l-1.9-4.429 4.028.671a8.056 8.056 0 0 0 1.316.109h24a8 8 0 0 0 8-8v-48a8 8 0 0 0 -8-8h-24a8.056 8.056 0 0 0 -1.315.109l-6.685 1.114v-7.007l11.218-18.7a24 24 0 0 0 4.782.484h8a24 24 0 0 0 0-48h-8a23.988 23.988 0 0 0 -18.5 39.277l-12.36 20.607a8 8 0 0 0 -1.14 4.116v11.89l-10.365 1.727a24.03 24.03 0 0 0 -21.635-13.617h-52.686l-13.657-13.657-19.314-19.313a23.862 23.862 0 0 0 -10.343-6.1v-15.061a23.941 23.941 0 0 0 8-17.869v-24h16v-16h-16a32 32 0 0 0 -64 0v32a31.86 31.86 0 0 0 8 21.132v25a23.941 23.941 0 0 0 -8 17.868v88a31.793 31.793 0 0 0 4.305 16h-20.305v-248a8 8 0 0 0 -10.809-7.491l-64 24a8 8 0 0 0 0 14.982l58.809 22.053v34.456h-120a8 8 0 0 0 -8 8v160a8 8 0 0 0 8 8h61.873q-.35.99-.617 2.021a88.235 88.235 0 0 0 -69.256 85.979v56a8 8 0 0 0 8 8h8.518a63.982 63.982 0 0 0 126.963.006l152.538.006a58.32 58.32 0 0 0 40.228-16.012h8.383c2.648 0 5.29-.123 7.92-.341a64 64 0 1 0 127.45 8.341 63.568 63.568 0 0 0 -14.15-40.222 8 8 0 0 0 4.775-3.293zm-94.625-252.485h8a8 8 0 0 1 0 16h-8a8 8 0 0 1 0-16zm75.329 240h-3.959a96.156 96.156 0 0 0 -47.63 12.649l-15.419 8.81a80.125 80.125 0 0 1 -39.691 10.541h-.13a64.1 64.1 0 0 1 63.5-56 50.8 50.8 0 0 1 43.329 24zm-35.329 40a16 16 0 1 1 -16 16 16.019 16.019 0 0 1 16-16zm-200-75.158a45.808 45.808 0 0 1 5.015-20.842h2.985v72a8 8 0 0 1 -8-8zm56 51.158h-32v-10.442a30.688 30.688 0 0 0 27.03-5.558h4.97a8 8 0 0 1 0 16zm-16-27.755a14.672 14.672 0 0 1 -16 0v-12.245h16zm16-4.245v-72a48.055 48.055 0 0 0 -48-48v-20.687l10.343 10.344a8 8 0 0 0 5.657 2.343h49.376a24.071 24.071 0 0 0 18.6 15.656l8.589 31.492a147.372 147.372 0 0 1 -1.024 81.2l-.295.986a42.918 42.918 0 0 1 -19.346 24.811c.063-.707.1-1.422.1-2.145a24.027 24.027 0 0 0 -24-24zm48-136a8 8 0 1 1 -8-8 8.009 8.009 0 0 1 8 8zm13.729-10.178 26.271-4.378v29.112l-26.271-4.378a23.943 23.943 0 0 0 0-20.356zm50.271 26.178h-8v-32h8zm-128-40h56a24.038 24.038 0 0 0 -22.624 16h-46.062l-16-16 12.686-12.686 10.343 10.343a8 8 0 0 0 5.657 2.343zm-27.313-24-12.687 12.687-10.343-10.344-11.314 11.314 13.657 13.656v20.687h-32v-56a8.009 8.009 0 0 1 8-8h25.373a7.949 7.949 0 0 1 5.657 2.343zm-20.687-64a8.009 8.009 0 0 1 -8 8h-8a16.019 16.019 0 0 1 -16-16v-16h32zm-16-56a16.019 16.019 0 0 1 16 16h-32a16.019 16.019 0 0 1 16-16zm-8 78.987a31.94 31.94 0 0 0 8 1.013h8v8h-16zm-8 121.013v-16h32v8a8 8 0 0 0 8 8h8a32.036 32.036 0 0 1 32 32v48h-16v-40a24.028 24.028 0 0 0 -24-24h-24a16.019 16.019 0 0 1 -16-16zm-81.216-208 33.216-12.456v24.912zm33.216 80v16h-112v-16zm-112 32h112v112h-112zm200 128a8.009 8.009 0 0 1 8 8v8h-141.754l2.485-9.94a7.99 7.99 0 0 1 7.761-6.06zm-64 136v.006l-119.633-.006a88.117 88.117 0 0 1 87.633-80 56.064 56.064 0 0 1 56 56 24.028 24.028 0 0 1 -24 24zm-58.167 16a15.962 15.962 0 0 1 -27.666 0zm-13.833 40a48.069 48.069 0 0 1 -47.32-40h16.333a32 32 0 0 0 61.973 0h16.334a48.07 48.07 0 0 1 -47.32 40zm216.02-55.988h-112.048a39.8 39.8 0 0 0 8.028-24.012 72.081 72.081 0 0 0 -72-72 104.139 104.139 0 0 0 -103.695 96h-.305v-48a72.251 72.251 0 0 1 48.8-68.174l-.558 2.234a8 8 0 0 0 7.758 9.94h131.622a61.8 61.8 0 0 0 -3.622 20.842v43.158a24 24 0 0 0 24 24h50.257a58.517 58.517 0 0 0 56.315-42.067l.3-.987a163.354 163.354 0 0 0 1.128-90.008l-7.094-26.009 19 3.166 5.941 13.859a138.018 138.018 0 0 1 6.688 88.86 79.892 79.892 0 0 0 -28.226 54.349 42.4 42.4 0 0 1 -32.289 14.849zm119.98 55.988a48.019 48.019 0 0 1 -46.671-59.238 96.057 96.057 0 0 0 21.692-8.73 31.982 31.982 0 1 0 24.979-12.032 32.213 32.213 0 0 0 -4.025.262 80.19 80.19 0 0 1 30.752-8.119 47.991 47.991 0 0 1 -26.727 87.857z"/><path d="m128 224a40.148 40.148 0 0 0 -15.323-31.466l3.944-7.888a8 8 0 0 0 -3.572-10.729 55.984 55.984 0 0 0 -50.1 0 8 8 0 0 0 -3.572 10.73l3.944 7.888a40 40 0 1 0 64.679 31.465zm-29.624-38.642-10.376 20.753-10.376-20.753a40.419 40.419 0 0 1 20.752 0zm-10.376 62.642a23.984 23.984 0 0 1 -17.267-40.646l10.112 20.224a8 8 0 0 0 14.31 0l10.112-20.224a23.984 23.984 0 0 1 -17.267 40.646z"/></g></svg>