<svg id="Filled" height="512" viewBox="0 0 512 512" width="512" xmlns="http://www.w3.org/2000/svg"><path d="m240 184 16 192v16h96v-16l16-192z" fill="#93573d"/><path d="m160 184v-8h-32v24h-32v80h32 32v-8h32v-88z" fill="#fdd14b"/><path d="m88 264 16 112v16h96v-16-112z" fill="#e74444"/><path d="m368 184-2.67 32h-122.66l-2.67-32z" fill="#a4d4f4"/><path d="m24 376h400a0 0 0 0 1 0 0v16a16 16 0 0 1 -16 16h-368a16 16 0 0 1 -16-16v-16a0 0 0 0 1 0 0z" fill="#fdd14b"/><circle cx="344" cy="408" fill="#6a7073" r="48"/><circle cx="344" cy="408" fill="#99a2a7" r="16"/><circle cx="104" cy="408" fill="#6a7073" r="48"/><circle cx="104" cy="408" fill="#99a2a7" r="16"/><path d="m200 232h48a48 48 0 0 1 48 48 0 0 0 0 1 0 0h-144a0 0 0 0 1 0 0 48 48 0 0 1 48-48z" fill="#ea8333"/><path d="m152 344h144a0 0 0 0 1 0 0v16a16 16 0 0 1 -16 16h-112a16 16 0 0 1 -16-16v-16a0 0 0 0 1 0 0z" fill="#ea8333"/><path d="m289.455 312c8.033 0 14.545 7.163 14.545 16 0 8.837-6.512 16-14.545 16h-130.91c-8.033 0-14.545-7.163-14.545-16 0-8.837 6.512-16 14.545-16z" fill="#794832"/><path d="m160 280h128v32h-128z" fill="#fdd14b"/><path d="m312 288c0 13.255-11.257 24-25.143 24a25.445 25.445 0 0 1 -20.957-10.735 25.815 25.815 0 0 1 -41.9 0 25.815 25.815 0 0 1 -41.9 0 25.445 25.445 0 0 1 -20.957 10.735c-13.886 0-25.143-10.745-25.143-24a8 8 0 0 1 8-8h160a8 8 0 0 1 8 8z" fill="#3ba673"/><path d="m464 288a8 8 0 0 0 0-16h-16a8 8 0 0 0 0 16z"/><path d="m215.767 95.48 7.783 5.839a8 8 0 0 1 1.856 10.837l-7.6 11.406a8 8 0 1 0 13.313 8.876l7.6-11.407a24.007 24.007 0 0 0 -5.569-32.511l-7.783-5.839a8 8 0 0 1 -1.857-10.837l7.605-11.406a8 8 0 0 0 -13.315-8.876l-7.6 11.407a24.005 24.005 0 0 0 5.567 32.511z"/><path d="m151.767 95.48 7.783 5.839a8 8 0 0 1 1.856 10.837l-7.6 11.406a8 8 0 1 0 13.313 8.876l7.6-11.407a24.007 24.007 0 0 0 -5.569-32.511l-7.783-5.839a8 8 0 0 1 -1.857-10.837l7.605-11.406a8 8 0 0 0 -13.315-8.876l-7.6 11.407a24.005 24.005 0 0 0 5.567 32.511z"/><path d="m278.85 95.48 7.783 5.839a8 8 0 0 1 1.857 10.837l-7.605 11.406a8 8 0 1 0 13.313 8.876l7.6-11.407a24.005 24.005 0 0 0 -5.569-32.511l-7.783-5.839a8 8 0 0 1 -1.856-10.837l7.6-11.406a8 8 0 0 0 -13.313-8.876l-7.6 11.407a24.007 24.007 0 0 0 5.573 32.511z"/><path d="m344 384a24 24 0 1 0 24 24 24.027 24.027 0 0 0 -24-24zm0 32a8 8 0 1 1 8-8 8.009 8.009 0 0 1 -8 8z"/><path d="m488 224h-88a8 8 0 0 0 0 16h88a8 8 0 0 0 0-16z"/><path d="m376 328a8 8 0 0 0 8 8h48a8 8 0 0 0 0-16h-48a8 8 0 0 0 -8 8z"/><path d="m488 448h-104.862a55.882 55.882 0 0 0 16.281-32h8.581a24.028 24.028 0 0 0 24-24v-16a8 8 0 0 0 -8-8h-40.862a56.068 56.068 0 0 0 -21.353-13.088l5.576-66.912h46.859a8 8 0 0 0 0-16h-45.526l7.278-87.336a8 8 0 0 0 -7.972-8.664h-56v-18.584l34.971-13.988a8 8 0 0 0 -5.942-14.856l-40 16a8 8 0 0 0 -5.029 7.428v24h-56a8 8 0 0 0 -7.972 8.664l3.278 39.336h-35.306v-40a8 8 0 0 0 -8-8h-24a8 8 0 0 0 -8-8h-32a8 8 0 0 0 -8 8v16h-24a8 8 0 0 0 -8 8v56a8 8 0 0 0 -7.919 9.131l12.574 88.026a55.921 55.921 0 0 0 -27.793 14.843h-40.862a8 8 0 0 0 -8 8v16a24.028 24.028 0 0 0 24 24h8.581a55.882 55.882 0 0 0 16.281 32h-40.862a8 8 0 0 0 0 16h464a8 8 0 0 0 0-16zm-72-64v8a8.009 8.009 0 0 1 -8 8h-8.581a55.52 55.52 0 0 0 -4.833-16zm-56.694-192-1.334 16h-45.972v-16zm-52.1 121.231a31.581 31.581 0 0 0 12.794-25.231 16.019 16.019 0 0 0 -16-16h-.581a56.087 56.087 0 0 0 -52.049-47.889l-.009-.111h105.278l-10.67 128.05c-.655-.023-1.309-.05-1.969-.05a55.8 55.8 0 0 0 -39.138 16h-2.238a23.889 23.889 0 0 0 1.376-8v-13.684a24.6 24.6 0 0 0 8-18.316 24.868 24.868 0 0 0 -4.794-14.769zm-11.206-121.231v16h-45.972l-1.334-16zm-128 0h16v34.341a55.821 55.821 0 0 0 -16 7.742zm-6.86 78.54a40.064 40.064 0 0 1 38.86-30.54h48a40.068 40.068 0 0 1 39.2 32h-126.06zm142.86 17.45v.01c0 8.822-7.69 16-17.143 16a17.439 17.439 0 0 1 -14.386-7.306 8 8 0 0 0 -13.132 0 17.817 17.817 0 0 1 -28.773 0 8 8 0 0 0 -13.132 0 17.817 17.817 0 0 1 -28.773 0 8 8 0 0 0 -13.132 0 17.439 17.439 0 0 1 -14.386 7.306c-9.453 0-17.143-7.178-17.143-16zm-136 96.01h125.414a55.52 55.52 0 0 0 -4.833 16h-129.162a55.52 55.52 0 0 0 -4.833-16zm-8-24v-8h128v8a8.009 8.009 0 0 1 -8 8h-112a8.009 8.009 0 0 1 -8-8zm129.455-24h-130.91c-3.609 0-6.545-3.589-6.545-8s2.936-8 6.545-8v-.108c.859.065 1.723.108 2.6.108a33.832 33.832 0 0 0 20.952-7.2 34.075 34.075 0 0 0 41.905 0 34.075 34.075 0 0 0 41.9 0 33.832 33.832 0 0 0 20.952 7.2c.875 0 1.739-.043 2.6-.108v.108c3.609 0 6.545 3.589 6.545 8s-2.935 8-6.544 8zm-153.455-152h16v67.19q-1.406 2.334-2.586 4.81h-13.414zm-32 24h16v48h-16zm40 64a16.019 16.019 0 0 0 -16 16 31.581 31.581 0 0 0 12.794 25.231 24.868 24.868 0 0 0 -4.794 14.769 24.6 24.6 0 0 0 8 18.316v13.684a23.889 23.889 0 0 0 1.376 8h-2.238a55.819 55.819 0 0 0 -34.457-15.789l-11.457-80.211zm-95.419 128h-8.581a8.009 8.009 0 0 1 -8-8v-8h21.414a55.52 55.52 0 0 0 -4.833 16zm55.419 48a40 40 0 1 1 40-40 40.045 40.045 0 0 1 -40 40zm39.138 0a55.882 55.882 0 0 0 16.281-32h129.162a55.882 55.882 0 0 0 16.281 32zm200.862 0a40 40 0 1 1 40-40 40.045 40.045 0 0 1 -40 40z"/><path d="m104 384a24 24 0 1 0 24 24 24.027 24.027 0 0 0 -24-24zm0 32a8 8 0 1 1 8-8 8.009 8.009 0 0 1 -8 8z"/></svg>