<?xml version="1.0" encoding="iso-8859-1"?>
<!-- Generator: Adobe Illustrator 19.0.0, SVG Export Plug-In . SVG Version: 6.00 Build 0)  -->
<svg version="1.1" id="Capa_1" xmlns="http://www.w3.org/2000/svg" xmlns:xlink="http://www.w3.org/1999/xlink" x="0px" y="0px"
	 viewBox="0 0 512 512" style="enable-background:new 0 0 512 512;" xml:space="preserve">
<rect x="199.89" y="7.515" style="fill:#E4DAD8;" width="264.517" height="384.751"/>
<polygon style="fill:#D7C8C5;" points="304.094,119.734 199.89,7.515 199.89,504.485 304.094,392.266 "/>
<rect x="47.593" y="119.734" style="fill:#F2EDEC;" width="256.501" height="384.751"/>
<rect x="47.593" y="119.734" style="fill:#E4DAD8;" width="24.047" height="384.751"/>
<rect x="47.593" y="119.734" style="fill:#55D4BE;" width="248.485" height="96.188"/>
<rect x="47.593" y="119.734" style="fill:#24BFB2;" width="24.047" height="96.188"/>
<g>
	<polygon style="fill:#FAD000;" points="119.734,408.957 129.195,438.075 159.812,438.075 135.043,456.072 144.503,485.19 
		119.734,467.193 94.964,485.19 104.425,456.072 79.656,438.075 110.272,438.075 	"/>
	<polygon style="fill:#FAD000;" points="231.953,408.957 241.415,438.075 272.031,438.075 247.262,456.072 256.722,485.19 
		231.953,467.193 207.184,485.19 216.644,456.072 191.875,438.075 222.492,438.075 	"/>
</g>
<rect x="87.671" y="247.984" style="fill:#E06B1D;" width="176.344" height="136.266"/>
<rect x="103.703" y="264.016" style="fill:#FA892D;" width="144.282" height="104.204"/>
<path d="M464.407,72.642c4.151,0,7.515-3.365,7.515-7.515V7.515c0-4.15-3.364-7.515-7.515-7.515H199.89
	c-4.081,0-7.515,3.426-7.515,7.515v104.704H47.593c-4.151,0-7.515,3.365-7.515,7.515v384.751c0,4.15,3.364,7.515,7.515,7.515
	h256.501c4.151,0,7.515-3.365,7.515-7.515V399.781h152.798c4.151,0,7.515-3.365,7.515-7.515V101.198c0-4.15-3.364-7.515-7.515-7.515
	s-7.515,3.365-7.515,7.515v283.554H311.609V327.64h24.548c4.151,0,7.515-3.365,7.515-7.515s-3.364-7.515-7.515-7.515h-24.548v-41.08
	h112.72c4.151,0,7.515-3.365,7.515-7.515s-3.364-7.515-7.515-7.515h-112.72v-33.065h48.595c4.151,0,7.515-3.365,7.515-7.515
	s-3.364-7.515-7.515-7.515h-48.595v-33.065h64.626c4.151,0,7.515-3.365,7.515-7.515s-3.364-7.515-7.515-7.515h-64.626v-33.065
	h88.673c4.151,0,7.515-3.365,7.515-7.515c0-4.15-3.364-7.515-7.515-7.515h-92.91l-30.703-33.065h43.457
	c4.151,0,7.515-3.365,7.515-7.515c0-4.15-3.364-7.515-7.515-7.515h-56.11c-0.411,0-0.812,0.042-1.205,0.105l-45.687-49.201h239.769
	v50.098C456.892,69.277,460.256,72.642,464.407,72.642z M55.108,127.249h241.472v81.159H55.108V127.249z M207.405,112.219V26.651
	l79.456,85.568H207.405z M296.579,496.971H55.108V223.436h240.971c0.169,0,0.335-0.014,0.501-0.025V496.971z"/>
<path d="M424.329,64.125h-72.141c-4.151,0-7.515,3.365-7.515,7.515c0,4.15,3.364,7.515,7.515,7.515h72.141
	c4.151,0,7.515-3.365,7.515-7.515C431.843,67.49,428.48,64.125,424.329,64.125z"/>
<path d="M424.329,160.313h-24.047c-4.151,0-7.515,3.365-7.515,7.515s3.364,7.515,7.515,7.515h24.047
	c4.151,0,7.515-3.365,7.515-7.515S428.48,160.313,424.329,160.313z"/>
<path d="M424.329,208.407H384.25c-4.151,0-7.515,3.365-7.515,7.515s3.364,7.515,7.515,7.515h40.078c4.151,0,7.515-3.365,7.515-7.515
	S428.48,208.407,424.329,208.407z"/>
<path d="M424.329,312.611h-64.125c-4.151,0-7.515,3.365-7.515,7.515s3.364,7.515,7.515,7.515h64.125
	c4.151,0,7.515-3.365,7.515-7.515S428.48,312.611,424.329,312.611z"/>
<path d="M114.594,144.854c-2.808-1.163-6.04-0.52-8.19,1.629l-10.717,10.718L84.97,146.483c-2.15-2.15-5.383-2.792-8.19-1.629
	c-2.808,1.163-4.639,3.904-4.639,6.943v32.063c0,4.15,3.364,7.515,7.515,7.515c4.151,0,7.515-3.365,7.515-7.515v-13.921l3.202,3.203
	c2.936,2.935,7.693,2.935,10.628,0l3.202-3.203v13.921c0,4.15,3.364,7.515,7.515,7.515c4.151,0,7.515-3.365,7.515-7.515v-32.063
	C119.233,148.757,117.402,146.017,114.594,144.854z"/>
<path d="M159.812,159.311c4.151,0,7.515-3.365,7.515-7.515s-3.364-7.515-7.515-7.515h-24.047c-4.151,0-7.515,3.365-7.515,7.515
	v32.063c0,4.15,3.364,7.515,7.515,7.515h24.047c4.151,0,7.515-3.365,7.515-7.515s-3.364-7.515-7.515-7.515H143.28v-1.002h8.517
	c4.151,0,7.515-3.365,7.515-7.515s-3.364-7.515-7.515-7.515h-8.517v-1.002H159.812z"/>
<path d="M215.922,144.282c-4.151,0-7.515,3.365-7.515,7.515v13.921l-19.234-19.235c-4.637-4.637-12.829-1.237-12.829,5.313v32.063
	c0,4.15,3.364,7.515,7.515,7.515s7.515-3.365,7.515-7.515v-13.921l19.234,19.235c4.641,4.639,12.829,1.225,12.829-5.313v-32.063
	C223.436,147.646,220.073,144.282,215.922,144.282z"/>
<path d="M272.031,144.282c-4.151,0-7.515,3.365-7.515,7.515v24.548h-17.033v-24.548c0-4.15-3.364-7.515-7.515-7.515
	s-7.515,3.365-7.515,7.515v32.063c0,4.15,3.364,7.515,7.515,7.515h32.063c4.151,0,7.515-3.365,7.515-7.515v-32.063
	C279.546,147.646,276.182,144.282,272.031,144.282z"/>
<path d="M159.812,430.56h-25.157l-7.774-23.926c-1.006-3.096-3.892-5.193-7.147-5.193c-3.255,0-6.141,2.096-7.147,5.193
	l-7.774,23.926H79.656c-3.255,0-6.141,2.096-7.147,5.193c-1.006,3.096,0.096,6.488,2.73,8.401l20.353,14.788l-7.775,23.926
	c-1.006,3.096,0.096,6.489,2.73,8.401c2.634,1.914,6.2,1.914,8.833,0l20.353-14.787l20.353,14.787
	c2.825,2.051,6.794,1.855,9.404-0.461c2.213-1.963,3.073-5.127,2.159-7.942l-7.775-23.926l20.353-14.788
	c2.634-1.914,3.736-5.305,2.73-8.401C165.953,432.657,163.067,430.56,159.812,430.56z M130.625,449.992
	c-2.634,1.914-3.736,5.305-2.73,8.401l2.315,7.122l-6.059-4.403c-1.317-0.957-2.867-1.435-4.417-1.435s-3.1,0.479-4.417,1.435
	l-6.059,4.403l2.315-7.122c1.006-3.096-0.096-6.489-2.73-8.401l-6.059-4.403h7.49c3.255,0,6.141-2.096,7.147-5.193l2.315-7.122
	l2.315,7.122c1.006,3.096,3.892,5.193,7.147,5.193h7.49L130.625,449.992z"/>
<path d="M272.031,430.56h-25.157l-7.774-23.926c-1.006-3.096-3.892-5.193-7.147-5.193s-6.141,2.096-7.147,5.193l-7.774,23.926
	h-25.157c-3.255,0-6.141,2.096-7.147,5.193c-1.006,3.096,0.096,6.488,2.73,8.401l20.353,14.788l-7.775,23.926
	c-0.962,2.961,0.049,6.296,2.495,8.224c2.613,2.059,6.377,2.133,9.069,0.178l20.353-14.787l20.353,14.787
	c2.825,2.051,6.794,1.855,9.404-0.461c2.213-1.963,3.073-5.127,2.159-7.942l-7.775-23.926l20.353-14.788
	c2.634-1.914,3.736-5.305,2.73-8.401C278.172,432.657,275.287,430.56,272.031,430.56z M242.844,449.992
	c-2.634,1.914-3.736,5.305-2.73,8.401l2.315,7.122l-6.059-4.403c-1.317-0.957-2.867-1.435-4.417-1.435
	c-1.55,0-3.1,0.479-4.417,1.435l-6.059,4.403l2.315-7.122c1.006-3.096-0.096-6.489-2.73-8.401l-6.059-4.403h7.49
	c3.255,0,6.141-2.096,7.147-5.193l2.315-7.122l2.315,7.122c1.006,3.096,3.892,5.193,7.147,5.193h7.49L242.844,449.992z"/>
<path d="M87.671,391.765h176.344c4.151,0,7.515-3.365,7.515-7.515V247.984c0-4.15-3.364-7.515-7.515-7.515H87.671
	c-4.151,0-7.515,3.365-7.515,7.515V384.25C80.157,388.401,83.52,391.765,87.671,391.765z M95.186,255.499h161.315v121.237H95.186
	V255.499z"/>
<path d="M231.953,272.532H119.734c-4.151,0-7.515,3.365-7.515,7.515s3.364,7.515,7.515,7.515h112.219
	c4.151,0,7.515-3.365,7.515-7.515S236.104,272.532,231.953,272.532z"/>
<path d="M119.734,327.64h64.125c4.151,0,7.515-3.365,7.515-7.515s-3.364-7.515-7.515-7.515h-64.125
	c-4.151,0-7.515,3.365-7.515,7.515S115.583,327.64,119.734,327.64z"/>
<path d="M231.953,312.611h-24.047c-4.151,0-7.515,3.365-7.515,7.515s3.364,7.515,7.515,7.515h24.047
	c4.151,0,7.515-3.365,7.515-7.515S236.104,312.611,231.953,312.611z"/>
<path d="M207.906,344.673h-88.172c-4.151,0-7.515,3.365-7.515,7.515s3.364,7.515,7.515,7.515h88.172
	c4.151,0,7.515-3.365,7.515-7.515S212.057,344.673,207.906,344.673z"/>
<g>
</g>
<g>
</g>
<g>
</g>
<g>
</g>
<g>
</g>
<g>
</g>
<g>
</g>
<g>
</g>
<g>
</g>
<g>
</g>
<g>
</g>
<g>
</g>
<g>
</g>
<g>
</g>
<g>
</g>
</svg>
