<?xml version="1.0" encoding="iso-8859-1"?>
<!-- Generator: Adobe Illustrator 21.0.0, SVG Export Plug-In . SVG Version: 6.00 Build 0)  -->
<svg version="1.1" id="Capa_1" xmlns="http://www.w3.org/2000/svg" xmlns:xlink="http://www.w3.org/1999/xlink" x="0px" y="0px"
	 viewBox="0 0 512.068 512.068" style="enable-background:new 0 0 512.068 512.068;" xml:space="preserve">
<g transform="translate(0 -1)">
	<g transform="translate(6 1)">
		<g>
			<path style="fill:#CFD8DC;" d="M454.834,401.135v102.4h-409.6v-102.4c46.507,0,50.773,28.16,89.6,33.365
				c4.245,0.534,8.521,0.791,12.8,0.768c46.592,0,50.773-28.245,89.6-33.28c4.21-0.608,8.461-0.893,12.715-0.853
				c46.592,0,50.859,28.16,89.685,33.365c4.245,0.534,8.521,0.791,12.8,0.768c40.875,0,49.067-21.76,76.8-30.464
				C437.516,402.216,446.159,400.978,454.834,401.135z"/>
			<path style="fill:#6A1B9A;" d="M454.834,401.135v8.533c-51.2,0-51.2,34.133-102.4,34.133c-4.279,0.023-8.555-0.234-12.8-0.768
				c-38.827-5.205-43.093-33.365-89.685-33.365c-4.254-0.04-8.504,0.246-12.715,0.853c-38.827,5.035-43.008,33.28-89.6,33.28
				c-4.279,0.023-8.555-0.234-12.8-0.768c-38.827-5.205-43.093-33.365-89.6-33.365v-8.533c0-18.851,15.282-34.133,34.133-34.133
				h341.333C439.552,367.002,454.834,382.284,454.834,401.135z"/>
			<path style="fill:#CFD8DC;" d="M412.167,281.668v85.333H87.901v-85.333c35.755,0,39.936,26.539,68.267,32.853
				c4.212,0.858,8.501,1.287,12.8,1.28c35.755,0,39.936-26.539,68.181-32.768c4.202-0.931,8.496-1.389,12.8-1.365
				c35.84,0,40.021,26.539,68.352,32.853c4.212,0.858,8.501,1.287,12.8,1.28c29.525,0,37.547-18.176,55.467-27.989
				C394.409,283.54,403.241,281.42,412.167,281.668z"/>
			<path style="fill:#6A1B9A;" d="M412.167,281.668v8.533c-40.533,0-40.533,34.133-81.067,34.133
				c-4.299,0.007-8.587-0.422-12.8-1.28c-28.331-6.315-32.512-32.853-68.352-32.853c-4.304-0.024-8.598,0.434-12.8,1.365
				c-28.245,6.229-32.427,32.768-68.181,32.768c-4.299,0.007-8.588-0.422-12.8-1.28c-28.331-6.315-32.512-32.853-68.267-32.853
				v-8.533c0-18.851,15.282-34.133,34.133-34.133h256C396.885,247.535,412.167,262.817,412.167,281.668z"/>
			<path style="fill:#CFD8DC;" d="M369.501,179.268v68.267h-25.6v-64.427c5.978-7.487,14.917-12.003,24.491-12.373
				C369.154,173.514,369.527,176.386,369.501,179.268z"/>
			<g>
				<path style="fill:#F4F4F4;" d="M429.234,404.804v98.731h-384v-98.731c27.733,8.704,35.925,30.464,76.8,30.464
					c4.279,0.023,8.555-0.234,12.8-0.768c4.245,0.534,8.521,0.791,12.8,0.768c46.592,0,50.773-28.245,89.6-33.28
					c38.827,5.12,43.093,33.28,89.6,33.28c4.279,0.023,8.555-0.234,12.8-0.768c4.245,0.534,8.521,0.791,12.8,0.768
					C393.309,435.268,401.501,413.508,429.234,404.804z"/>
				<path style="fill:#F4F4F4;" d="M386.567,287.812v79.189H87.901v-79.189c17.92,9.813,25.941,27.989,55.467,27.989
					c4.299,0.007,8.587-0.422,12.8-1.28c4.212,0.858,8.501,1.287,12.8,1.28c35.755,0,39.936-26.539,68.181-32.768
					c28.416,6.229,32.597,32.768,68.352,32.768c4.299,0.007,8.588-0.422,12.8-1.28c4.212,0.858,8.501,1.287,12.8,1.28
					C360.626,315.802,368.647,297.626,386.567,287.812z"/>
				<path style="fill:#F4F4F4;" d="M343.901,183.108v64.427H130.566l0.001-68.267c-0.026-2.882,0.347-5.754,1.109-8.533
					c23.893,0.683,28.16,23.723,45.739,31.573c4.032,1.766,8.399,2.639,12.8,2.56c24.832,0,29.013-23.637,46.933-31.573
					c4.032-1.766,8.399-2.639,12.8-2.56c24.832,0,29.013,23.637,46.933,31.573c4.062,1.766,8.457,2.639,12.885,2.56
					C327.517,204.868,334.685,192.836,343.901,183.108z"/>
			</g>
			<path style="fill:#6A1B9A;" d="M369.501,179.268c-29.867,0-29.867,34.133-59.733,34.133c-4.401,0.079-8.768-0.794-12.8-2.56
				c-18.005-7.936-22.101-31.573-47.019-31.573c-4.401-0.079-8.768,0.794-12.8,2.56c-17.92,7.936-22.101,31.573-46.933,31.573
				c-4.401,0.079-8.768-0.794-12.8-2.56c-17.835-7.936-22.016-31.573-46.848-31.573c-0.026-2.882,0.347-5.754,1.109-8.533
				c3.867-15.075,17.46-25.613,33.024-25.6h170.667c15.564-0.013,29.157,10.525,33.024,25.6
				C369.154,173.514,369.527,176.386,369.501,179.268z"/>
			<g>
				<path style="fill:#9D27B0;" d="M429.234,401.135v8.533c-46.507,0-50.773,28.16-89.6,33.365
					c-38.827-5.205-43.093-33.365-89.685-33.365c-4.254-0.04-8.504,0.246-12.715,0.853c-4.268-0.607-8.575-0.893-12.885-0.853
					c-46.421,0-50.688,28.16-89.515,33.365c-38.827-5.205-43.093-33.365-89.6-33.365v-8.533c0-18.851,15.282-34.133,34.133-34.133
					h315.733C413.952,367.002,429.234,382.284,429.234,401.135z"/>
				<path style="fill:#9D27B0;" d="M386.567,281.668v8.533c-35.755,0-39.936,26.539-68.267,32.853
					c-28.331-6.315-32.512-32.853-68.352-32.853c-4.304-0.024-8.598,0.434-12.8,1.365c-4.202-0.931-8.496-1.389-12.8-1.365
					c-35.669,0-39.851,26.539-68.181,32.853c-28.331-6.315-32.512-32.853-68.267-32.853v-8.533
					c0-18.851,15.282-34.133,34.133-34.133h230.4C371.285,247.535,386.567,262.817,386.567,281.668z"/>
				<path style="fill:#9D27B0;" d="M343.901,179.268c-24.832,0-29.013,23.637-46.933,31.573
					c-18.005-7.936-22.101-31.573-47.019-31.573c-4.401-0.079-8.768,0.794-12.8,2.56c-4.032-1.766-8.399-2.639-12.8-2.56
					c-24.832,0-29.013,23.637-46.933,31.573c-17.835-7.936-22.016-31.573-46.848-31.573c-0.026-2.882,0.347-5.754,1.109-8.533
					c3.867-15.075,17.46-25.613,33.024-25.6h145.067c15.564-0.013,29.157,10.525,33.024,25.6
					C343.554,173.514,343.927,176.386,343.901,179.268z"/>
			</g>
		</g>
		<path style="fill:#AD1457;" d="M314.717,88.559c-11.349,21.248-40.448,42.411-64.683,56.576c-4.181-2.475-8.448-5.035-12.8-7.936
			c20.907-13.483,42.496-31.061,51.883-48.64c16.128-28.245,16.128-56.491,0-70.656c-3.9-3.314-8.428-5.81-13.312-7.339
			c13.375-4.323,28.03-1.559,38.912,7.339C330.845,32.068,330.845,60.314,314.717,88.559z"/>
		<path style="fill:#E91E63;" d="M289.117,88.559c-9.387,17.579-30.976,35.157-51.883,48.64
			c-20.907-13.483-42.496-31.061-51.883-48.64c-16.128-28.245-16.128-56.491,0-70.656c3.9-3.314,8.428-5.81,13.312-7.339
			c13.186-4.198,27.591-1.681,38.571,6.741c5.24,3.984,9.598,9.011,12.8,14.763c5.514-10.208,14.74-17.907,25.771-21.504
			c4.884,1.529,9.412,4.025,13.312,7.339C305.245,32.068,305.245,60.314,289.117,88.559z"/>
	</g>
	<path d="M503.501,496.002h-34.133v-93.867c-0.028-23.552-19.114-42.638-42.667-42.667v-76.8
		c-0.028-23.552-19.114-42.638-42.667-42.667v-59.733c-0.028-23.552-19.114-42.638-42.667-42.667h-56.38
		c17.355-11.327,32.065-26.26,43.127-43.785c18.193-31.812,17.476-64.503-1.792-81.357c-11.185-9.349-25.938-13.262-40.286-10.684
		c-11.62,1.968-22.211,7.866-30.003,16.708c-7.793-8.84-18.384-14.738-30.003-16.708c-14.348-2.571-29.098,1.341-40.286,10.684
		c-19.268,16.853-19.985,49.545-1.911,81.135c11.086,17.609,25.84,32.619,43.255,44.006h-56.388
		c-23.552,0.028-42.638,19.114-42.667,42.667v59.733c-23.552,0.028-42.638,19.114-42.667,42.667v76.8
		c-23.552,0.028-42.638,19.114-42.667,42.667v93.867H8.567c-4.713,0-8.533,3.821-8.533,8.533s3.821,8.533,8.533,8.533h494.933
		c4.713,0,8.533-3.821,8.533-8.533S508.214,496.002,503.501,496.002z M198.767,85.343c-14.046-24.542-14.763-48.691-1.792-60.032
		c5.769-4.752,13.041-7.296,20.514-7.177c1.916,0.002,3.828,0.162,5.717,0.478c10.914,1.924,20.311,8.82,25.421,18.654
		c1.643,2.489,4.425,3.986,7.407,3.986c2.982,0,5.764-1.497,7.407-3.986c5.108-9.836,14.506-16.732,25.421-18.654
		c9.302-1.699,18.883,0.748,26.231,6.699c12.971,11.341,12.254,35.49-1.886,60.237c-8.158,15.275-28.86,33.587-57.173,50.645
		C227.746,119.153,207.036,100.823,198.767,85.343z M170.701,154.668h170.667c11.28,0.04,21.199,7.472,24.405,18.287
		c-10.665,3.199-19.995,9.79-26.573,18.773c-7.919,9.02-12.911,14.14-23.433,14.14c-10.522,0-15.548-5.12-23.458-14.157
		c-8.229-12.081-21.734-19.504-36.343-19.977c-14.59,0.485-28.072,7.907-36.284,19.977c-7.91,9.037-12.894,14.157-23.441,14.157
		c-10.547,0-15.514-5.12-23.407-14.148c-6.567-8.98-15.885-15.571-26.539-18.773C149.505,162.135,159.423,154.707,170.701,154.668z
		 M145.101,190.346c5.898,2.95,11.001,7.272,14.882,12.604c8.197,12.074,21.673,19.501,36.258,19.985
		c14.591-0.48,28.075-7.904,36.284-19.977c7.91-9.037,12.894-14.157,23.441-14.157s15.548,5.12,23.467,14.157
		c7.88,12.437,21.578,19.974,36.301,19.974s28.421-7.537,36.301-19.974c3.889-5.348,9.012-9.678,14.933-12.621v49.664H145.101
		V190.346z M128.034,257.068h256c14.138,0,25.6,11.462,25.6,25.6v0.503c-14.19,1.982-27.359,8.495-37.547,18.569
		c-9.121,9.615-21.793,15.061-35.046,15.061s-25.925-5.445-35.046-15.061c-12.204-12.212-28.76-19.073-46.025-19.073
		s-33.821,6.861-46.025,19.073c-9.113,9.615-21.778,15.061-35.025,15.061c-13.247,0-25.912-5.446-35.025-15.061
		c-10.164-10.059-23.302-16.571-37.461-18.569v-0.503C102.434,268.53,113.896,257.068,128.034,257.068z M102.434,300.477
		c10.046,2.069,19.261,7.049,26.496,14.319c12.204,12.212,28.76,19.073,46.025,19.073s33.821-6.861,46.025-19.073
		c9.114-9.616,21.781-15.062,35.029-15.062c13.249,0,25.915,5.446,35.029,15.062c12.211,12.212,28.772,19.072,46.042,19.072
		c17.269,0,33.831-6.861,46.042-19.072c7.242-7.272,16.462-12.254,26.513-14.327v58.999h-307.2V300.477z M85.367,376.535h341.333
		c14.138,0,25.6,11.462,25.6,25.6v0.375c-17.21,1.393-33.661,7.682-47.411,18.125c-27.482,20.843-65.48,20.843-92.962,0
		c-16.029-12.298-35.744-18.817-55.945-18.5c-20.192-0.315-39.899,6.205-55.919,18.5c-13.185,10.457-29.605,15.985-46.43,15.633
		c-16.835,0.355-33.267-5.173-46.464-15.633c-13.748-10.441-30.196-16.73-47.403-18.125v-0.375
		C59.767,387.996,71.229,376.535,85.367,376.535z M59.767,496.002v-76.416c13.831,1.396,26.983,6.683,37.931,15.249
		c16.027,12.296,35.738,18.815,55.936,18.5c20.19,0.314,39.893-6.206,55.91-18.5c13.188-10.458,29.611-15.987,46.438-15.633
		c16.838-0.355,33.273,5.173,46.473,15.633c33.223,24.662,78.675,24.662,111.898,0c10.953-8.568,24.111-13.855,37.948-15.249v76.416
		H59.767z"/>
</g>
<g>
</g>
<g>
</g>
<g>
</g>
<g>
</g>
<g>
</g>
<g>
</g>
<g>
</g>
<g>
</g>
<g>
</g>
<g>
</g>
<g>
</g>
<g>
</g>
<g>
</g>
<g>
</g>
<g>
</g>
</svg>
