<svg id="Layer_1" enable-background="new 0 0 513 513" height="512" viewBox="0 0 513 513" width="512" xmlns="http://www.w3.org/2000/svg"><g><path d="m80 392.043v-130c0-55.229 45.402-100 100.63-100h-58c-55.229 0-100 44.771-100 100v130c0 55.228 44.771 100 100 100h58c-55.228 0-100.63-44.771-100.63-100z" fill="#c6e1f2"/><path d="m392 512.5h-272c-66.168 0-120-53.832-120-120v-127c0-66.168 53.832-120 120-120h96c11.046 0 20 8.954 20 20s-8.954 20-20 20h-96c-44.112 0-80 35.888-80 80v127c0 44.112 35.888 80 80 80h272c44.112 0 80-35.888 80-80v-120c0-11.046 8.954-20 20-20s20 8.954 20 20v120c0 66.168-53.832 120-120 120zm20-100c0-11.046-8.954-20-20-20h-266c-11.046 0-20 8.954-20 20s8.954 20 20 20h266c11.046 0 20-8.954 20-20zm-281-187c-13.807 0-25 11.193-25 25s11.193 25 25 25 25-11.193 25-25-11.193-25-25-25zm86 0c-13.807 0-25 11.193-25 25s11.193 25 25 25 25-11.193 25-25-11.193-25-25-25zm-86 86c-13.807 0-25 11.193-25 25s11.193 25 25 25 25-11.193 25-25-11.193-25-25-25zm86 0c-13.807 0-25 11.193-25 25s11.193 25 25 25 25-11.193 25-25-11.193-25-25-25zm86 0c-13.807 0-25 11.193-25 25s11.193 25 25 25 25-11.193 25-25-11.193-25-25-25zm84 0c-13.807 0-25 11.193-25 25s11.193 25 25 25 25-11.193 25-25-11.193-25-25-25z" fill="#0023c4"/><path d="m291.998 241.501c-1.998 0-4.018-.3-5.997-.922-8.333-2.62-14.001-10.345-14.001-19.08l.005-99.421c-.284-32.278 12.13-62.743 34.96-85.794 22.855-23.076 53.232-35.784 85.535-35.784 32.52 0 62.939 12.63 85.653 35.563 22.78 23 35.153 53.583 34.841 86.116-.308 32.058-13.056 62.093-35.896 84.572-22.767 22.41-52.952 34.749-84.998 34.749-.035 0-.073 0-.107 0-17.914 0-35.938-4.448-53.559-13.221-3.841-1.912-7.976-2.783-12.072-2.783-14.362 0-23.362 16.005-34.364 16.005zm100.044-40.001h.039c44.21.003 80.494-35.745 80.916-79.705.209-21.777-8.052-42.227-23.263-57.584-15.145-15.29-35.471-23.711-57.234-23.711-21.546 0-41.83 8.499-57.115 23.932-15.285 15.432-23.588 35.804-23.381 57.363 0 .064-.002 65.312-.002 65.312 14.588-3.279 30.206-1.633 44.26 5.364 12.033 5.991 24.062 9.029 35.75 9.029z" fill="#ff5cf3"/></g></svg>