<svg height="512pt" viewBox="0 -10 512 512" width="512pt" xmlns="http://www.w3.org/2000/svg" xmlns:xlink="http://www.w3.org/1999/xlink"><linearGradient id="a" gradientUnits="userSpaceOnUse" x1="0" x2="512" y1="246" y2="246"><stop offset="0" stop-color="#80d8ff"/><stop offset="1" stop-color="#ea80fc"/></linearGradient><path d="m492 0h-472c-11.046875 0-20 8.953125-20 20v319.988281c0 11.046875 8.953125 20 20 20h228.816406l154.457032 127.421875c12.949218 10.6875 32.726562 1.542969 32.726562-15.425781v-111.996094h56c11.046875 0 20-8.953125 20-20v-319.988281c0-11.046875-8.953125-20-20-20zm-20 319.988281h-56c-11.046875 0-20 8.957031-20 20v89.570313l-127.273438-104.996094c-3.582031-2.957031-8.082031-4.574219-12.726562-4.574219h-216v-279.988281h432zm-282.832031-200.164062c0-11.046875 8.953125-20 20-20s20 8.953125 20 20c0 11.042969-8.953125 20-20 20s-20-8.957031-20-20zm0 120c0-11.046875 8.953125-20 20-20s20 8.953125 20 20c0 11.042969-8.953125 20-20 20s-20-8.957031-20-20zm153.652343-58.78125c-.511718 59.359375-41.15625 99.105469-60.046874 99.105469-7.082032 0-13.816407-3.710938-17.453126-10.015626-4.617187-7.992187-3.261718-17.820312 3.371094-24.453124.117188-.113282 33.53125-15.976563 34.121094-64.636719-.578125-47.605469-32.710938-63.230469-34.121094-64.640625-6.632812-6.632813-7.988281-16.457032-3.371094-24.449219 3.636719-6.304687 10.371094-10.019531 17.453126-10.019531 20.054687 0 59.546874 41.285156 60.046874 99.109375zm0 0" fill="url(#a)"/></svg>