<svg id="Layer_1" enable-background="new 0 0 511.25 511.25" height="512" viewBox="0 0 511.25 511.25" width="512" xmlns="http://www.w3.org/2000/svg"><g><path d="m8 79.375h256v352h-256z" fill="#69bdc6"/><path d="m232 111.375h-192v352h256v-288z" fill="#d7eef6"/><path d="m296 175.375v288h-24v-312z" fill="#a7c4d9"/><g fill="#fff"><path d="m296 175.375h-64v-64"/><path d="m80 207.375h32v32h-32z"/><path d="m80 271.375h32v32h-32z"/><path d="m80 335.375h32v32h-32z"/></g><g><g><path d="m72 407.875h16v15h-16z" fill="#fff"/></g><g><path d="m136 407.875h16v15h-16z" fill="#fff"/></g></g><path d="m216 335.375h112v128h-112z" fill="#faef93"/><path d="m304 335.375h24v128h-24z" fill="#ffb04e"/><path d="m328 271.375h112v192h-112z" fill="#faef93"/><path d="m416 271.375h24v192h-24z" fill="#ffb04e"/><path d="m432 143.375-48 48-24-24-24 24 48 48 72-72z" fill="#d8fc7e"/><path d="m424.686 146.404h22.627v33.941h-22.627z" fill="#69bdc6" transform="matrix(.707 -.707 .707 .707 12.178 356.15)"/><g><circle cx="440" cy="399.375" fill="#faef93" r="64"/><path d="m440 335.375c-1.391 0-2.768.06-4.138.147 29.125 1.987 52.138 26.225 52.138 55.853 0 30.928-25.072 56-56 56-29.628 0-53.866-23.013-55.853-52.138-.087 1.369-.147 2.746-.147 4.138 0 35.346 28.654 64 64 64s64-28.654 64-64-28.654-64-64-64z" fill="#ffb04e"/><circle cx="440" cy="399.375" fill="#ffb04e" r="32"/><g><path d="m72 168.375h120v15h-120z"/><path d="m119 200.375h-47v47h47zm-15 32h-17v-17h17z"/><path d="m136 200.375h128v15h-128z"/><path d="m136 232.375h96v15h-96z"/><path d="m72 311.375h47v-47h-47zm15-32h17v17h-17z"/><path d="m136 264.375h128v15h-128z"/><path d="m136 296.375h96v15h-96z"/><path d="m72 375.375h47v-47h-47zm15-32h17v17h-17z"/><path d="m136 328.375h56v15h-56z"/><path d="m136 360.375h56v15h-56z"/><path d="m104 408.375h16v15h-16z"/><path d="m47 263.375h-15v161h-17v-337h97v17h-80v143h15v-128h33v8c0 12.958 10.542 23.5 23.5 23.5s23.5-10.542 23.5-23.5v-8h97v64h64v128h15v-139.107l-32-32v-67.893h-144v-9c0-12.958-10.542-23.5-23.5-23.5s-23.5 10.542-23.5 23.5v9h-80v367h32v32h160v-15h-145zm65-136c0 4.687-3.813 8.5-8.5 8.5s-8.5-3.813-8.5-8.5v-8h17zm165.894 41h-38.894v-38.894zm-150.894-81h129v37.893l-20.894-20.893h-108.106zm-32-24c0-4.687 3.813-8.5 8.5-8.5s8.5 3.813 8.5 8.5v9h-17z"/><path d="m466.606 167.375-34.606-34.606-48 48-24-24-34.606 34.606 58.606 58.606zm-106.606 10.606 24 24 48-48 13.394 13.394-61.394 61.394-37.394-37.394z"/><path d="m447 328.27v-63.895h-127v64h-112v143h232c39.425 0 71.25-32.325 71.25-71.75 0-36.892-28.25-67.594-64.25-71.355zm-127 128.105h-97v-17h97zm0-32h-97v-17h97zm0-32h-97v-17h97zm0-32h-97v-17h97zm15-81h97v17h-97zm0 32h97v17h-97zm0 32h61.259c-6.146 4-11.5 10-15.819 17h-45.44zm0 32h37.826c-1.974 5-3.312 11-3.93 17h-33.896zm0 32h33.895c.619 5 1.957 11 3.93 17h-37.825zm0 49v-17h45.44c4.319 6 9.673 12 15.819 17zm105-.5c-31.154 0-56.5-25.346-56.5-56.5s25.346-56.5 56.5-56.5 56.5 25.346 56.5 56.5-25.346 56.5-56.5 56.5z"/><path d="m440 359.875c-21.78 0-39.5 17.72-39.5 39.5s17.72 39.5 39.5 39.5 39.5-17.72 39.5-39.5-17.72-39.5-39.5-39.5zm0 64c-13.509 0-24.5-10.991-24.5-24.5s10.991-24.5 24.5-24.5 24.5 10.991 24.5 24.5-10.991 24.5-24.5 24.5z"/></g></g></g></svg>