<svg id="Capa_1" enable-background="new 0 0 512 512" height="512" viewBox="0 0 512 512" width="512" xmlns="http://www.w3.org/2000/svg"><g><path d="m469.604 170.593-35.483-27.889c-19.065-14.985-45.907-14.985-64.972 0l-35.483 27.889c-22.032 17.317-34.895 43.789-34.895 71.812v107.9c0 33.974 27.541 61.514 61.514 61.514h82.699c33.974 0 61.514-27.541 61.514-61.514v-107.9c.002-28.023-12.861-54.495-34.894-71.812zm-67.968 46.095c-13.217 0-23.932-10.715-23.932-23.932s10.715-23.932 23.932-23.932 23.932 10.715 23.932 23.932c0 13.218-10.715 23.932-23.932 23.932z" fill="#88d37f"/><path d="m371.818 264.595v-107.9c0-5.152-.331-10.251-.958-15.278-.576.416-1.147.843-1.71 1.286l-35.483 27.889c-22.032 17.317-34.895 43.789-34.895 71.812v107.9c0 1.312.055 2.611.136 3.903 41.571-8.619 72.91-45.524 72.91-89.612z" fill="#5ec682"/><path d="m457.938 161.423-23.816-18.719c-19.065-14.985-45.907-14.985-64.972 0l-23.816 18.719c7.751 12.04 19.247 21.435 32.854 26.527 2.225-10.913 11.878-19.124 23.448-19.124 11.571 0 21.223 8.211 23.448 19.124 13.607-5.092 25.103-14.487 32.854-26.527z" fill="#5ec682"/><path d="m306.923 84.884-35.483-27.89c-19.065-14.985-45.907-14.985-64.972 0l-35.483 27.889c-22.032 17.317-34.895 43.789-34.895 71.812v107.9c0 33.974 27.541 61.514 61.515 61.514h82.699c33.974 0 61.515-27.541 61.515-61.514v-107.9c-.001-28.022-12.864-54.494-34.896-71.811zm-67.969 46.095c-13.217 0-23.932-10.715-23.932-23.932s10.715-23.932 23.932-23.932 23.932 10.715 23.932 23.932-10.715 23.932-23.932 23.932z" fill="#f6ee86"/><path d="m295.257 75.714-23.817-18.72c-19.065-14.985-45.907-14.985-64.972 0l-23.816 18.719c7.751 12.04 19.247 21.435 32.854 26.527 2.225-10.913 11.878-19.125 23.448-19.125s21.223 8.211 23.448 19.125c13.608-5.091 25.103-14.486 32.855-26.526z" fill="#f2d98d"/><path d="m243.229 296.873c0-37.471-16.897-72.242-46.356-95.397l-35.484-27.89c-7.592-5.967-16.188-10.513-25.298-13.504v104.513c0 33.974 27.541 61.514 61.515 61.514h45.624v-29.236z" fill="#f2d98d"/><path d="m178.333 225.061-35.483-27.889c-19.065-14.985-45.907-14.985-64.972 0l-35.483 27.889c-22.032 17.317-34.895 43.788-34.895 71.811v107.9c0 33.974 27.541 61.514 61.515 61.514h82.699c33.973 0 61.514-27.541 61.514-61.514v-107.9c0-28.023-12.864-54.494-34.895-71.811zm-67.969 46.095c-13.217 0-23.932-10.715-23.932-23.932s10.715-23.932 23.932-23.932 23.932 10.715 23.932 23.932c0 13.218-10.715 23.932-23.932 23.932z" fill="#e7889d"/><path d="m131.119 466.286c-92.124-38.434-82.003-193.201-78.611-249.174l-10.113 7.949c-22.032 17.317-34.895 43.788-34.895 71.811v107.9c0 33.974 27.541 61.514 61.515 61.514z" fill="#e16e7e"/><path d="m166.666 215.891-23.816-18.719c-19.065-14.985-45.907-14.985-64.972 0l-23.816 18.719c7.751 12.04 19.247 21.435 32.854 26.527 2.225-10.913 11.878-19.125 23.448-19.125s21.223 8.211 23.448 19.125c13.607-5.092 25.103-14.487 32.854-26.527z" fill="#e16e7e"/><path d="m432.94 288.002c0-17.261-14.043-31.304-31.304-31.304-14.925 0-27.843 10.617-30.716 25.245-.798 4.064 1.85 8.007 5.914 8.805 4.066.798 8.007-1.85 8.805-5.914 1.495-7.611 8.223-13.136 15.997-13.136 8.99 0 16.304 7.314 16.304 16.304s-7.314 16.305-16.304 16.305c-4.143 0-7.5 3.358-7.5 7.5 0 4.143 3.357 7.5 7.5 7.5 8.99 0 16.304 7.314 16.304 16.304s-7.314 16.304-16.304 16.304c-8.09 0-15.031-6.027-16.146-14.021-.104-.75-.157-1.518-.157-2.283 0-4.143-3.357-7.5-7.5-7.5-4.142 0-7.5 3.357-7.5 7.5 0 1.456.102 2.922.302 4.355 2.144 15.363 15.472 26.948 31.002 26.948 17.261 0 31.304-14.043 31.304-31.304 0-9.519-4.27-18.058-10.995-23.804 6.724-5.745 10.994-14.285 10.994-23.804zm76.154-69.391c-.997-4.02-5.066-6.473-9.085-5.474-4.02.997-6.471 5.064-5.474 9.085 1.636 6.594 2.465 13.384 2.465 20.182v107.899c0 29.784-24.23 54.015-54.015 54.015h-82.699c-29.784 0-54.015-24.23-54.015-54.015v-21.782c25.219-10.282 43.047-35.055 43.047-63.926v-86.47c6.079 6.006 13.158 10.975 20.887 14.594 0 .013-.001.025-.001.037 0 17.331 14.101 31.432 31.432 31.432s31.432-14.101 31.432-31.432c0-.012-.001-.025-.001-.037 10.175-4.764 19.233-11.86 26.346-20.599 3.438 2.963 12.237 8.419 21.058 20.299 1.472 1.981 3.734 3.028 6.027 3.028 1.554 0 3.122-.48 4.466-1.479 3.325-2.47 4.02-7.167 1.55-10.493-5.228-7.039-11.376-13.357-18.274-18.78-74.998-58.947 4.653 3.657-35.482-27.889-21.856-17.18-52.385-17.182-74.241 0l-15.5 12.182c-2.112-27.548-15.495-52.739-37.458-70.003-7.285-5.726-27.857-21.895-35.482-27.889-21.857-17.18-52.386-17.18-74.241 0l-35.483 27.889c-23.997 18.862-37.76 47.187-37.76 77.709v24.549c-18.545-5.93-39.287-2.594-55.348 10.03-22.118 17.385-23.996 18.861-35.483 27.89-23.998 18.863-37.762 47.186-37.762 77.71v107.899c0 28.324 17.749 54.206 44.166 64.404 3.865 1.49 8.206-.433 9.698-4.296 1.491-3.864-.432-8.206-4.296-9.698-20.676-7.981-34.568-28.24-34.568-50.41v-107.899c0-25.892 11.675-49.916 32.03-65.915l5.557-4.368c7.113 8.739 16.171 15.835 26.346 20.598 0 .012-.001.024-.001.037 0 17.332 14.101 31.433 31.432 31.433 17.198 0 31.431-13.954 31.431-31.469 10.175-4.763 19.233-11.859 26.346-20.598l5.557 4.368c20.355 15.999 32.029 40.024 32.029 65.915v107.899c0 29.784-24.23 54.015-54.014 54.015h-69.768c-4.143 0-7.5 3.357-7.5 7.5s3.357 7.5 7.5 7.5h69.769c38.055 0 69.014-30.96 69.014-69.015v-71.163h59.576c3.733 0 7.394-.308 10.968-.881v17.574c0 38.055 30.96 69.015 69.015 69.015h82.699c38.055 0 69.015-30.96 69.015-69.015v-107.899c-.001-8.014-.979-16.019-2.907-23.793zm-107.458-9.423c-9.061 0-16.432-7.371-16.432-16.432s7.371-16.432 16.432-16.432 16.432 7.371 16.432 16.432c-.001 9.061-7.372 16.432-16.432 16.432zm-27.851-60.588c16.399-12.889 39.305-12.887 55.702 0l18.135 14.254c-5.051 6.156-11.314 11.277-18.326 14.987-5.32-9.827-15.723-16.517-27.66-16.517s-22.34 6.69-27.66 16.517c-7.012-3.711-13.275-8.831-18.325-14.987zm-162.681-85.709c16.398-12.889 39.304-12.889 55.702 0l18.135 14.254c-5.052 6.156-11.314 11.277-18.327 14.987-5.32-9.827-15.723-16.517-27.66-16.517s-22.34 6.69-27.66 16.517c-7.013-3.711-13.275-8.831-18.326-14.987zm44.282 44.156c0 9.061-7.371 16.432-16.432 16.432s-16.432-7.371-16.432-16.432 7.371-16.432 16.432-16.432 16.432 7.372 16.432 16.432zm-145.022 156.61c-9.061 0-16.432-7.372-16.432-16.433s7.371-16.432 16.432-16.432c9.06 0 16.432 7.371 16.432 16.432s-7.371 16.433-16.432 16.433zm27.661-31.347c-5.32-9.827-15.723-16.517-27.661-16.517-11.937 0-22.341 6.69-27.661 16.517-7.012-3.71-13.275-8.83-18.326-14.987l18.136-14.255c16.59-13.038 39.518-12.72 55.702 0l18.136 14.255c-5.051 6.156-11.314 11.276-18.326 14.987zm142.279 86.3h-59.576v-21.737c0-6.122-.563-12.153-1.642-18.04 7.928.613 39.215.194 47.209.093 4.143-.052 7.458-3.451 7.405-7.593-.053-4.258-3.644-7.529-7.593-7.405-11.915.149-24.67.234-33.768.208 5.208-6.867 13.434-17.898 25.713-35.443 5.721-8.173 9.439-15.845 11.052-22.802.154-.656.653-4.652.653-5.293 0-17.261-14.043-31.304-31.304-31.304-14.925 0-27.843 10.617-30.716 25.245-.798 4.064 1.85 8.007 5.914 8.805 4.068.796 8.007-1.85 8.805-5.914 1.495-7.611 8.223-13.136 15.997-13.136 8.846 0 16.068 7.08 16.298 15.871-.139.418.326 6.618-8.988 19.926-18.691 26.706-27.644 37.825-31.106 42.533-12.386-33.676-37.302-46.814-43.302-52.587-26.401-20.75-25.008-19.739-27.765-21.575v-31.767c0-25.891 11.674-49.916 32.029-65.916l5.557-4.368c7.112 8.739 16.171 15.834 26.346 20.599 0 17.532 14.246 31.469 31.431 31.469 17.195 0 31.431-13.952 31.431-31.469 10.175-4.764 19.233-11.86 26.346-20.598l5.557 4.368c20.355 16 32.03 40.025 32.03 65.916v107.899c.001 29.784-24.229 54.015-54.013 54.015zm-162.964 102.05c4.143 0 7.5-3.357 7.5-7.5v-93.026c0-4.143-3.357-7.5-7.5-7.5h-19.884c-4.143 0-7.5 3.357-7.5 7.5s3.357 7.5 7.5 7.5h12.384v85.526c0 4.142 3.357 7.5 7.5 7.5z"/></g></svg>