<svg height="512" viewBox="0 0 64 64" width="512" xmlns="http://www.w3.org/2000/svg" xmlns:xlink="http://www.w3.org/1999/xlink"><linearGradient id="New_Gradient_Swatch_3" gradientUnits="userSpaceOnUse" x1="32" x2="32" y1="62.896" y2="2.918"><stop offset="0" stop-color="#006df0"/><stop offset="1" stop-color="#00e7f0"/></linearGradient><g id="Massage" fill="url(#New_Gradient_Swatch_3)"><path d="m61.594 24.217.01-.014-6.604-5.01v-9.193a1 1 0 0 0 -1-1h-12.434l-7.749-5.875a3 3 0 0 0 -3.631 0l-7.752 5.875h-12.434a1 1 0 0 0 -1 1v9.193l-6.6 5.007.01.014a.979.979 0 0 0 -.41.786v36a1 1 0 0 0 1 1h58a1 1 0 0 0 1-1v-36a.979.979 0 0 0 -.406-.783zm-52.594 4.448-4.39-3.631 4.39-3.334zm14.182 14.335-19.182 15.874v-31.749zm8.181-4.174a.992.992 0 0 1 1.279.005l25.581 21.169h-52.446zm9.455 4.174 19.182-15.875v31.749zm18.572-17.966-4.39 3.631v-6.965zm-27.99-20.32a.986.986 0 0 1 1.209 0l5.647 4.286h-12.512zm-20.4 6.286h42v19.32l-13.75 11.38-5.328-4.408a2.985 2.985 0 0 0 -3.839 0l-5.333 4.408-13.75-11.38z"/><path d="m22 31h5.52l3.7 4.625a1 1 0 0 0 1.562 0l3.698-4.625h5.52a5.006 5.006 0 0 0 5-5v-8a5.006 5.006 0 0 0 -5-5h-20a5.006 5.006 0 0 0 -5 5v8a5.006 5.006 0 0 0 5 5zm-3-13a3 3 0 0 1 3-3h20a3 3 0 0 1 3 3v8a3 3 0 0 1 -3 3h-6a1 1 0 0 0 -.781.375l-3.219 4.025-3.219-4.024a1 1 0 0 0 -.781-.376h-6a3 3 0 0 1 -3-3z"/><path d="m24 19h16a1 1 0 0 0 0-2h-16a1 1 0 0 0 0 2z"/><path d="m24 23h16a1 1 0 0 0 0-2h-16a1 1 0 0 0 0 2z"/><path d="m24 27h16a1 1 0 0 0 0-2h-16a1 1 0 0 0 0 2z"/></g></svg>