<?xml version="1.0"?>
<svg xmlns="http://www.w3.org/2000/svg" xmlns:xlink="http://www.w3.org/1999/xlink" viewBox="0 0 64 64" width="512" height="512"><defs><linearGradient id="New_Gradient_Swatch_3" x1="29.5" y1="64.94" x2="29.5" y2="-0.967" gradientUnits="userSpaceOnUse"><stop offset="0" stop-color="#006df0"/><stop offset="1" stop-color="#00e7f0"/></linearGradient><linearGradient id="New_Gradient_Swatch_3-2" x1="34.5" y1="64.94" x2="34.5" y2="-0.967" xlink:href="#New_Gradient_Swatch_3"/><linearGradient id="New_Gradient_Swatch_3-3" x1="32" y1="64.94" x2="32" y2="-0.967" xlink:href="#New_Gradient_Swatch_3"/><linearGradient id="New_Gradient_Swatch_3-4" x1="32.061" y1="64.94" x2="32.061" y2="-0.967" xlink:href="#New_Gradient_Swatch_3"/></defs><g id="Mobile"><path d="M30,7H29a1,1,0,0,1,0-2h1a1,1,0,0,1,0,2Z" style="fill:url(#New_Gradient_Swatch_3)"/><path d="M35,7H34a1,1,0,0,1,0-2h1a1,1,0,0,1,0,2Z" style="fill:url(#New_Gradient_Swatch_3-2)"/><path d="M61.639,24.231,52,16.221V7a5.006,5.006,0,0,0-5-5H17a5.006,5.006,0,0,0-5,5v9.221l-9.639,8.01A1,1,0,0,0,2,25V61a1,1,0,0,0,1,1H61a1,1,0,0,0,1-1V25A1,1,0,0,0,61.639,24.231ZM23.182,43,4,58.874V27.126ZM47,35.288,39.25,41.7l-5.327-4.409a2.99,2.99,0,0,0-3.841,0L24.75,41.7,17,35.288V7h6.465l1.407,2.11A2.012,2.012,0,0,0,26.54,10H37.46a2.016,2.016,0,0,0,1.672-.9l1.4-2.1H47ZM31.362,38.827a.992.992,0,0,1,1.281,0L58.223,60H5.777ZM40.818,43,60,27.126V58.874ZM59.433,25,52,31.15V18.821ZM17,4H47a3,3,0,0,1,3,3V32.805l-1,.828V7a2,2,0,0,0-2-2H40a1,1,0,0,0-.832.445L37.46,8,26.532,8l-1.7-2.55A1,1,0,0,0,24,5H17a2,2,0,0,0-2,2V33.633l-1-.828V7A3,3,0,0,1,17,4ZM12,31.15,4.567,25,12,18.821Z" style="fill:url(#New_Gradient_Swatch_3-3)"/><path d="M36.535,23.364l-2.121,2.121a3.071,3.071,0,0,1-4.243,0l-.242-.241a3.005,3.005,0,0,1,0-4.243l2.121-2.122a1,1,0,0,0,0-1.414L27.1,12.515a1.029,1.029,0,0,0-1.414,0l-2.122,2.121a9,9,0,0,0,0,12.728l4.486,4.485a9.009,9.009,0,0,0,12.727,0L42.9,29.728a1,1,0,0,0,0-1.414l-4.95-4.95A1,1,0,0,0,36.535,23.364ZM26.394,14.636l3.535,3.535-.707.707-3.535-3.535Zm3.071,15.8L24.979,25.95a7,7,0,0,1-.657-9.143l3.557,3.557a5.01,5.01,0,0,0,.637,6.294l.242.241a5,5,0,0,0,6.293.637l3.555,3.556A7.009,7.009,0,0,1,29.465,30.435Zm10.606-.707-3.536-3.536.707-.707,3.536,3.536Z" style="fill:url(#New_Gradient_Swatch_3-4)"/></g></svg>
