<svg id="Capa_1" enable-background="new 0 0 512 512" height="512" viewBox="0 0 512 512" width="512" xmlns="http://www.w3.org/2000/svg"><g><path d="m256 0c-29.42 0-53.36 23.94-53.36 53.36 0 29.43 23.94 53.36 53.36 53.36s53.36-23.93 53.36-53.36c0-29.42-23.94-53.36-53.36-53.36zm0 76.72c-12.88 0-23.36-10.48-23.36-23.36s10.48-23.36 23.36-23.36 23.36 10.48 23.36 23.36-10.48 23.36-23.36 23.36z" fill="#ffa84a"/><path d="m318.3 421.86v27.84c0 34.35-27.95 62.3-62.3 62.3s-62.3-27.95-62.3-62.3v-27.84z" fill="#ffa84a"/><g><path d="m392.96 127.036c0-10.512-4.094-20.394-11.526-27.826-7.432-7.433-17.313-11.525-27.824-11.525v-30c18.524 0 35.939 7.214 49.038 20.313s20.313 30.514 20.313 49.037z" fill="#343941"/><path d="m480.645 126.079h-30c0-25.664-9.994-49.791-28.141-67.938s-42.275-28.141-67.939-28.141v-30c33.677 0 65.338 13.114 89.151 36.928 23.814 23.812 36.929 55.474 36.929 89.151z" fill="#343941"/><g fill="#4c5c72"><path d="m119.04 127.036-30-.002c0-18.523 7.214-35.938 20.313-49.037s30.514-20.313 49.038-20.313v30c-10.511 0-20.392 4.093-27.825 11.525-7.432 7.434-11.525 17.315-11.526 27.827z"/><path d="m61.355 126.079h-30c0-33.677 13.114-65.339 36.928-89.151 23.813-23.814 55.474-36.928 89.152-36.928v30c-25.664 0-49.792 9.994-67.938 28.141-18.147 18.147-28.142 42.274-28.142 67.938z"/></g></g><path d="m309.36 53.36c0 29.43-23.94 53.36-53.36 53.36v-30c12.88 0 23.36-10.48 23.36-23.36s-10.48-23.36-23.36-23.36v-30c29.42 0 53.36 23.94 53.36 53.36z" fill="#ff6826"/><path d="m318.3 421.86v27.84c0 34.35-27.95 62.3-62.3 62.3v-90.14z" fill="#ff6826"/><path d="m447.31 372.52v70.16h-382.62v-70.16l42.37-39.84 31.91-30v-108.92c0-64.54 52.5-117.04 117.03-117.04s117.03 52.5 117.03 117.04v108.92l31.91 30z" fill="#ffea01"/><path d="m447.31 372.52v70.16h-191.31v-365.96c64.53 0 117.03 52.5 117.03 117.04v108.92l31.91 30z" fill="#ffc303"/><path d="m404.94 332.68h-297.88l31.91-30h234.06z" fill="#ffa84a"/><path d="m404.94 332.68h-148.94v-30h117.03z" fill="#ff6826"/></g></svg>