<svg height="512pt" viewBox="0 -34 512 511" width="512pt" xmlns="http://www.w3.org/2000/svg" xmlns:xlink="http://www.w3.org/1999/xlink"><linearGradient id="a" gradientUnits="userSpaceOnUse" x1="256" x2="256" y1=".4997" y2="444.1803"><stop offset="0" stop-color="#2af598"/><stop offset="1" stop-color="#009efd"/></linearGradient><path d="m452 .5h-392c-33.085938 0-60 26.914062-60 60v256c0 33.085938 26.914062 60 60 60h156.320312l-42.023437-40h-114.296875c-11.027344 0-20-8.972656-20-20v-243.738281l216 160.664062 216-160.664062v110.410156l40-44.648437v-78.023438c0-33.085938-26.914062-60-60-60zm-388.351562 40h384.703124l-192.351562 143.074219zm418.472656 191.636719 29.757812 26.726562-166.441406 185.316407-108.226562-103.019532 27.578124-28.972656 78.402344 74.632812zm0 0" fill="url(#a)"/></svg>