<svg height="512pt" viewBox="0 0 512 512" width="512pt" xmlns="http://www.w3.org/2000/svg" xmlns:xlink="http://www.w3.org/1999/xlink"><linearGradient id="a"><stop offset="0" stop-color="#80d8ff"/><stop offset="1" stop-color="#ea80fc"/></linearGradient><linearGradient id="b" gradientUnits="userSpaceOnUse" x1="-2.856" x2="513.2512" xlink:href="#a" y1="427" y2="427"/><linearGradient id="c" gradientUnits="userSpaceOnUse" x1="-2.856" x2="513.2512" xlink:href="#a" y1="177.3382" y2="177.3382"/><linearGradient id="d" gradientUnits="userSpaceOnUse" x1="-2.856" x2="513.2512" xlink:href="#a" y1="138" y2="138"/><path d="m256 342c-60.652344 0-110 49.347656-110 110v40c0 11.046875 8.953125 20 20 20h180c11.046875 0 20-8.953125 20-20v-40c0-60.652344-49.347656-110-110-110zm70 130h-140v-20c0-38.597656 31.402344-70 70-70s70 31.402344 70 70zm0 0" fill="url(#b)"/><path d="m492 0h-472c-11.046875 0-20 8.953125-20 20v236c0 6.683594 3.335938 12.921875 8.894531 16.632812l117.835938 78.667969c13.140625 8.773438 31.105469-.535156 31.105469-16.636719v-58.664062h31.230468c8.625 28.882812 35.421875 50 67.070313 50 31.648437 0 58.445312-21.117188 67.074219-50h168.789062c11.046875 0 20-8.953125 20-20v-236c0-11.046875-8.953125-20-20-20zm-235.863281 286c-16.539063 0-30-13.457031-30-30s13.460937-30 30-30c16.542969 0 30 13.457031 30 30s-13.457031 30-30 30zm215.863281-50h-148.789062c-8.628907-28.882812-35.425782-50-67.074219-50-31.648438 0-58.445313 21.117188-67.070313 50h-51.230468c-11.046876 0-20 8.953125-20 20v41.265625l-77.835938-51.960937v-205.304688h432zm0 0" fill="url(#c)"/><g fill="url(#d)"><path d="m281 138c0 13.808594-11.191406 25-25 25s-25-11.191406-25-25 11.191406-25 25-25 25 11.191406 25 25zm0 0"/><path d="m359.667969 138c0 13.808594-11.195313 25-25 25-13.808594 0-25-11.191406-25-25s11.191406-25 25-25c13.804687 0 25 11.191406 25 25zm0 0"/><path d="m202.332031 138c0 13.808594-11.191406 25-25 25-13.804687 0-25-11.191406-25-25s11.195313-25 25-25c13.808594 0 25 11.191406 25 25zm0 0"/></g></svg>